<svg width="640" height="360" viewBox="0 0 640 360" xmlns="http://www.w3.org/2000/svg" role="img" aria-labelledby="title desc">
  <title id="title">Elderly-friendly AI product scene</title>
  <desc id="desc">An elderly user smiling while interacting with a simple AI home assistant device and display panel.</desc>
  <defs>
    <linearGradient id="bg" x1="0" y1="0" x2="1" y2="1">
      <stop offset="0%" stop-color="#f7f3ed"/>
      <stop offset="100%" stop-color="#ece8e1"/>
    </linearGradient>
    <linearGradient id="card" x1="0" y1="0" x2="0" y2="1">
      <stop offset="0%" stop-color="#fdfefe"/>
      <stop offset="100%" stop-color="#f1f4f8"/>
    </linearGradient>
    <filter id="soft" x="-20%" y="-20%" width="140%" height="140%">
      <feDropShadow dx="0" dy="8" stdDeviation="10" flood-opacity="0.16"/>
    </filter>
  </defs>

  <rect width="640" height="360" fill="url(#bg)"/>

  <g filter="url(#soft)">
    <rect x="50" y="56" width="360" height="248" rx="26" fill="#fff8ef"/>
    <ellipse cx="210" cy="148" rx="72" ry="58" fill="#f2d0bc"/>
    <path d="M138 138c10-42 96-54 126-8 6 9 8 21 6 33-23-8-77-10-132-25z" fill="#dad9dd"/>
    <rect x="138" y="180" width="148" height="96" rx="34" fill="#e9bb56"/>
    <circle cx="174" cy="156" r="7" fill="#5c4a41"/>
    <circle cx="226" cy="156" r="7" fill="#5c4a41"/>
    <path d="M176 184c20 18 52 18 72 0" stroke="#9f6a4a" stroke-width="7" stroke-linecap="round" fill="none"/>

    <rect x="138" y="222" width="130" height="34" rx="14" fill="#f6f4f0"/>
    <rect x="150" y="232" width="56" height="12" rx="6" fill="#c8cdd8"/>
  </g>

  <g filter="url(#soft)">
    <rect x="440" y="126" width="126" height="166" rx="18" fill="url(#card)"/>
    <rect x="456" y="146" width="94" height="64" rx="10" fill="#ecf2fb"/>
    <circle cx="482" cy="178" r="13" fill="#8eb7f1"/>
    <rect x="502" y="168" width="34" height="7" rx="3.5" fill="#9cb6d7"/>
    <rect x="502" y="182" width="40" height="7" rx="3.5" fill="#c1cfdf"/>
    <rect x="460" y="226" width="88" height="12" rx="6" fill="#d7deea"/>
  </g>

  <g filter="url(#soft)">
    <rect x="356" y="170" width="68" height="120" rx="30" fill="#eef3fb"/>
    <ellipse cx="390" cy="172" rx="24" ry="20" fill="#f7fbff"/>
    <circle cx="382" cy="170" r="4" fill="#7ca0d6"/>
    <circle cx="398" cy="170" r="4" fill="#7ca0d6"/>
    <rect x="380" y="182" width="20" height="6" rx="3" fill="#8ea6c9"/>
  </g>
</svg>
